<?xml version="1.0" standalone="no"?>
<svg viewBox="0 0 200 200" xmlns="http://www.w3.org/2000/svg">
  <path fill="#EAE6DA" d="M38.5,-66C50.7,-59.7,61.8,-50.9,71.2,-39.5C80.7,-28.1,88.4,-14,90.3,1.1C92.1,16.2,88.2,32.4,79,44.3C69.8,56.1,55.4,63.5,41.4,71.6C27.3,79.7,13.7,88.4,-0.4,89C-14.4,89.6,-28.8,82.2,-42.2,73.8C-55.7,65.4,-68.2,56,-77.4,43.5C-86.6,31.1,-92.5,15.5,-91.8,0.4C-91.1,-14.7,-83.9,-29.5,-75.2,-42.8C-66.5,-56.1,-56.3,-68,-43.5,-74C-30.8,-79.9,-15.4,-79.9,-1.1,-78C13.2,-76.1,26.4,-72.3,38.5,-66Z" transform="translate(100 100)" />
</svg>
